<svg xmlns="http://www.w3.org/2000/svg" version="1.1" xmlns:xlink="http://www.w3.org/1999/xlink" xmlns:svgjs="http://svgjs.dev/svgjs" width="1500" height="1687" viewBox="0 0 1500 1687"><g transform="matrix(1,0,0,1,0,0)"><svg viewBox="0 0 320 360" data-background-color="#ffffff" preserveAspectRatio="xMidYMid meet" height="1687" width="1500" xmlns="http://www.w3.org/2000/svg" xmlns:xlink="http://www.w3.org/1999/xlink"><g id="tight-bounds" transform="matrix(1,0,0,1,0,0)"><svg viewBox="0 0 320 360" height="360" width="320"><g><svg></svg></g><g><svg viewBox="0 0 320 360" height="360" width="320"><g><path d="M219.58 41.008c0.707 0 6.365 2.829 9.547 3.89-1.061 0.354-3.536-0.707-6.365-1.768 0.707 0 2.122 0.354 3.536 1.06-0.707-0.707-6.011-2.475-6.718-3.182M166.895 30.047c1.061-0.354 13.436 1.414 19.094 1.768 0.354-0.354-0.707-0.354-2.122-0.707 1.768-0.354 5.304 0.707 7.779 1.06-7.425 0.354-15.558-1.768-22.629-1.06-2.475 0-0.707-0.707-2.122-1.061M156.641 30.047c6.365 0 11.315 0 2.121 0.707-1.061-0.354-2.475-0.354-2.121-0.707M256.707 59.395c0.707 0 3.536 3.182 4.95 4.243-0.354 0.354-3.182-2.475-4.596-3.536 0.354 0.354 0 0-0.354-0.707M249.635 54.798c-2.829-2.475-3.889-2.475-4.243-3.889 2.475 1.414 4.243 2.829 4.243 3.889M204.022 32.522c0.354-0.354 1.061 0.354 2.829 0.707-2.122-0.354-1.768 0-1.061 0.707-2.475-0.354-3.182-0.707-2.475-1.414 1.414 0.707 1.768 0.354 0.707 0M103.602 36.765c0-0.354 1.414-1.061 2.475-1.414-1.061 0.707-0.707 1.061 1.061 0.353 0 0.354-2.122 1.061-3.536 1.768 0.707-0.354 1.414-1.414 0-0.707M211.094 28.986c-1.061 0.354-4.95-1.768-8.84-2.475-2.122-0.707 8.486 1.768 8.84 2.475M2.475 203.66c2.122 8.84 0.707 8.486 0 0M2.829 150.621c0.354-1.414 0.707-5.304 1.06-4.95-1.061 8.486-2.829 12.376-3.182 18.74 1.061-5.657-0.354 3.182-0.707 5.304 0.354 2.829 0.354-1.768 1.061-1.06 0.707 1.061-1.414 15.912-0.707 7.779-0.707 7.425 0 15.558 1.414 17.679-1.768 11.315 7.072 36.773 8.84 42.077 0.354 0.354 0-1.768 0.707-0.353 0.707 4.597 3.889 7.779 4.95 12.729 1.061 1.414 5.304 9.193 6.011 10.962 1.414 2.829 2.122 2.475 3.536 5.303 4.243 8.133 10.961 15.912 17.326 23.337 20.508 24.044 51.978 43.845 86.984 50.918 35.006 7.425 71.779 2.122 100.419-11.669 1.768-1.061 1.414-1.414 3.536-2.122 9.901-3.182 21.923-13.436 28.641-17.326 3.182-3.536 11.669-9.547 12.73-13.082 6.011-4.95 12.022-13.083 15.204-18.387 1.768-2.829 3.182-2.829 3.889-4.597-0.354 0 5.657-7.425 7.426-11.668-0.707 0-1.768 2.122-1.768 0 12.729-24.398 19.801-57.282 15.911-79.912 0.707 27.934-6.365 59.05-19.801 78.851-6.011 12.729-18.387 26.519-29.701 36.42-1.768 1.768-3.536 3.889-5.658 5.304-6.718 5.657-14.144 10.254-21.922 14.497-18.387 10.254-38.895 19.094-62.94 19.447 41.37-3.536 78.497-24.398 99.006-49.856-15.558 15.204-22.276 21.215-39.602 30.055-1.414 2.475-13.083 7.425-20.862 9.547 4.597-2.122 14.144-5.657 17.326-8.486-25.812 12.376-54.453 19.448-81.326 15.558 10.254 0 24.751 0.354 38.541-2.121 2.122-0.707 3.182-1.414 5.658-1.768 26.873-6.011 52.685-19.094 71.072-37.481-10.608 9.547-26.519 20.862-36.774 24.398 9.547-5.304 26.873-15.558 32.53-23.337-11.315 11.315-32.53 22.63-45.966 27.58-2.122 0.354 1.414-1.414-2.122 0-4.243 1.061-2.475 1.061-3.536 1.768-16.265 4.597-35.006 8.486-50.563 7.072-2.829-0.354-3.889-1.061-6.365-1.061-2.829-0.354-5.304-0.354-8.486-0.354-12.376-1.414-25.812-6.365-35.713-10.607-5.304-2.475-10.608-4.243-15.912-7.426-4.243-2.475-7.779-5.304-11.314-8.132-13.436-9.901-24.751-19.801-35.36-33.945-19.094-26.519-28.994-59.757-27.58-92.641 1.414-32.884 14.497-65.061 35.359-88.752-1.061 1.061 1.414-2.475 3.536-4.596 0 0.707-0.354 1.768 2.122-0.707 2.122-2.475-0.707-0.707 0.353-2.122 21.923-24.044 60.111-43.492 99.36-44.199 1.414-1.061 3.889-2.475 6.718-1.768 0 0.354-1.768 0.354-1.768 0.354 3.889-0.354 7.425-0.354 9.193 0.353 0.354-0.354-1.414-0.707 0-0.707 2.475 0.707 3.182 0 4.597 0.707-1.061 0-2.122 0-2.829 0.354 8.84 0 14.497 2.122 23.337 2.829-4.597-1.061-5.657-1.061-9.193-2.122 3.889 0.707 5.657 1.414 7.425 1.061-0.707 0-0.354-1.061 0.354-0.707 7.072 1.768 7.779 2.475 15.204 4.95 0.707-0.707-3.182-1.061-4.243-2.122 7.072 2.475 13.436 4.243 17.68 7.072-1.414-1.061-5.657-2.475-8.84-3.889-0.354 0.354 1.061 0.707 1.414 1.414-3.536-1.768-8.486-3.536-13.436-4.243 4.243 1.061 7.072 2.475 8.84 3.182-3.889-0.707-8.84-3.182-14.498-4.243 9.193 2.829 26.519 9.193 37.127 14.851-3.889-2.475-8.486-4.243-10.961-5.657 2.122 0.354 4.597 1.768 4.597 1.06 2.475 1.061 5.657 3.536 7.425 3.89-3.182-2.122-9.547-5.304-11.668-6.365 26.519 12.022 50.21 32.177 65.414 57.989 1.414 2.475 3.536 8.133 5.304 8.84-0.354-1.768-1.768-2.829-3.182-5.657 0.707 0 0.707-1.061 0-2.122-1.414-1.768 0 1.414-1.415-0.354-6.365-11.669-14.144-21.923-26.165-33.237 6.718 6.365 1.768 1.768 0.353-0.354 9.193 8.133 19.801 21.923 24.398 28.995-0.707-1.061-1.061-1.768-0.707-1.768 8.486 14.497 13.79 27.58 19.094 46.32 0.354 0.354 0-1.414 0.707-0.353 3.536 14.851 4.597 27.227 4.243 38.541 2.829-19.094-3.536-48.796-14.851-72.133-1.414-2.829-1.414-0.707-2.829-3.889 0-1.061-1.061-3.182-1.768-4.597-14.144-23.337-31.47-39.956-51.978-53.038 1.414 0.707 4.243 2.829 4.244 2.475-38.188-25.105-82.387-28.641-118.807-20.862-2.475 1.061-3.536 2.122-6.365 3.536 5.304-1.768 8.486-2.122 13.437-3.183 1.061-1.061-4.597 0.354-2.122-0.707 0.354 0.354 4.95-0.707 6.011-0.353 0 0.354-1.414 0.707-1.768 1.06 11.669-2.475 23.691-2.829 33.945-2.121-6.011 0.354-16.972-0.707-20.508 1.061 3.536-0.354 8.486-0.707 11.668-0.354-4.243 0-12.022 0.354-15.558 0.707-0.354-0.354 5.657-1.061 1.768-1.06-1.768 0.354-4.597 0.354-5.657 1.414-30.409 2.829-60.111 18.74-80.973 37.481-4.243 3.536-9.193 7.425-12.375 11.314-7.779 8.84-12.729 17.68-18.387 25.459 3.536-7.425 11.315-18.74 20.508-28.287 9.193-9.547 19.094-17.68 24.398-21.923 0 1.414 8.486-5.304 11.669-7.425-2.122 1.768 1.414-0.707 2.121-0.354 11.315-6.718 20.508-9.193 30.763-13.083-2.475 0.707-4.597 1.414-4.951 1.061 2.475-0.707 3.889-1.414 3.536-1.768-9.901 2.829-25.459 9.547-37.834 16.972 22.276-15.204 50.564-24.398 78.497-24.751 27.934-0.707 55.16 6.365 76.729 17.68 14.497 6.365 28.287 18.033 39.249 29.348 3.182 2.829 0.707-0.707 5.304 4.243-1.414-0.707-2.475-1.414-0.707 0.707 2.829 3.182-0.707-2.475 3.889 3.182-0.354 0-1.768-1.768-1.768-1.061 12.376 10.961 21.923 30.762 27.58 43.846-1.414-5.304-4.95-12.729-7.779-18.033 8.486 15.558 11.315 24.751 14.851 38.541 1.414 1.061-0.707-4.95 0.707-2.121 0.354 2.122 0.707 8.84 2.122 9.9-1.061-6.718-2.829-14.851-4.243-16.265 1.061 0.707-1.768-8.133-3.536-10.254-0.707-5.657-5.657-15.558-9.901-22.984-15.204-29.702-42.431-54.099-72.839-67.536 0-0.707-1.768-1.414-2.476-2.121-30.055-12.729-66.122-16.265-100.773-8.133-35.006 8.486-67.889 28.641-91.227 57.636 1.061-3.536 9.901-10.254 10.255-13.083-10.254 10.961-21.215 25.459-28.641 41.016-7.779 15.558-12.022 31.47-13.79 43.138" fill="#010c80" fill-rule="nonzero" stroke="none" stroke-width="1" stroke-linecap="butt" stroke-linejoin="miter" stroke-miterlimit="10" stroke-dasharray="" stroke-dashoffset="0" font-family="none" font-weight="none" font-size="none" text-anchor="none" style="mix-blend-mode: normal" data-fill-palette-color="tertiary"></path></g><g transform="matrix(1,0,0,1,124.1225264165228,90)"><svg viewBox="0 0 71.7549471669544 180" height="180" width="71.7549471669544"><g><svg viewBox="0 0 100.52601279718311 252.17330676018082" height="180" width="71.7549471669544"><g><svg viewBox="0 0 100.52601279718311 252.17330676018082" height="252.17330676018082" width="100.52601279718311"><g id="textblocktransform"><svg viewBox="0 0 100.52601279718311 252.17330676018082" height="252.17330676018082" width="100.52601279718311" id="textblock"><g><rect width="100.52601279718311" height="16.1322683800032" x="0" y="197.89158107592002" fill="#010c80" opacity="1" stroke-width="0" stroke="transparent" fill-opacity="1" class="rect-qz-0" data-fill-palette-color="primary" rx="1%" id="qz-0" data-palette-color="#010c80"></rect></g><g transform="matrix(1,0,0,1,0.25006470845070083,0)"><svg viewBox="0 0 100.02588338028171 178.88760000000002" height="178.88760000000002" width="100.02588338028171"><g transform="matrix(1,0,0,1,0,0)"><svg width="100.02588338028171" viewBox="0.75 -34.9 19.85 35.5" height="178.88760000000002" data-palette-color="#010c80"><path d="M7.65 0.6L7.65 0.6Q4.2 0.6 2.48-0.75 0.75-2.1 0.75-4.2L0.75-4.2Q0.75-5.6 1.55-6.53 2.35-7.45 3.8-7.45L3.8-7.45Q5.05-7.45 5.75-6.65 6.45-5.85 6.45-4.55L6.45-4.55Q6.45-3.55 5.95-2.93 5.45-2.3 4.9-2.1L4.9-2.1 4.9-1.95Q5.4-1.8 6.1-1.7 6.8-1.6 7.65-1.6L7.65-1.6Q12.55-1.6 12.55-7.55L12.55-7.55 12.55-32.6 7.8-32.6 7.8-34.9 20.6-34.9 20.6-32.6 16.85-32.6 16.85-7.95Q16.85-3.65 14.43-1.53 12 0.6 7.65 0.6Z" opacity="1" transform="matrix(1,0,0,1,0,0)" fill="#010c80" class="wordmark-text-0" data-fill-palette-color="primary" id="text-0"></path></svg></g></svg></g><g transform="matrix(1,0,0,1,0,233.02783053184322)"><svg viewBox="0 0 100.02588338028171 19.1454762283376" height="19.1454762283376" width="100.02588338028171"><g transform="matrix(1,0,0,1,0,0)"><svg width="100.02588338028171" viewBox="2.8 -35.85 189.63 36.300000000000004" height="19.1454762283376" data-palette-color="#598cc9"><path d="M2.8 0.15L2.8 0.15Q2.8-0.55 2.85-1.07 2.9-1.6 3.05-2L3.05-2Q4.4-2.1 5.15-2.48 5.9-2.85 6.2-3.78 6.5-4.7 6.5-6.35L6.5-6.35 6.5-27.45Q6.5-29.15 6.2-30.05 5.9-30.95 5.15-31.35 4.4-31.75 3.05-31.8L3.05-31.8Q2.9-32.2 2.85-32.75 2.8-33.3 2.8-33.95L2.8-33.95Q4.75-33.85 6.58-33.83 8.4-33.8 9.6-33.8L9.6-33.8Q10.3-33.8 11.58-33.83 12.85-33.85 14.1-33.88 15.35-33.9 15.95-33.9L15.95-33.9Q20.1-33.9 22.6-32.55 25.1-31.2 26.2-29 27.3-26.8 27.3-24.2L27.3-24.2Q27.3-21.35 26.03-18.7 24.75-16.05 22.25-14.35 19.75-12.65 15.95-12.65L15.95-12.65Q13.85-12.65 12.45-13.2L12.45-13.2Q12.35-13.75 12.35-14.25 12.35-14.75 12.5-15.25L12.5-15.25Q13.15-15.1 13.8-15.03 14.45-14.95 15.15-14.95L15.15-14.95Q17-14.95 18.6-15.6 20.2-16.25 21.2-17.93 22.2-19.6 22.2-22.75L22.2-22.75Q22.2-26.75 20.23-29.23 18.25-31.7 13.75-31.7L13.75-31.7Q13.2-31.7 12.48-31.63 11.75-31.55 10.45-31.25L10.45-31.25 11.2-32 11.2-7.35Q11.2-5.2 11.65-4.08 12.1-2.95 13.1-2.53 14.1-2.1 15.65-2L15.65-2Q15.8-1.6 15.85-1.07 15.9-0.55 15.9 0.15L15.9 0.15Q15.15 0.1 14.13 0.08 13.1 0.05 11.95 0.03 10.8 0 9.6 0L9.6 0Q8.45 0 7.1 0.03 5.75 0.05 4.6 0.08 3.45 0.1 2.8 0.15ZM42.35 0.45L42.35 0.45Q38.95 0.45 36.4-1.03 33.85-2.5 32.45-5.18 31.05-7.85 31.05-11.45L31.05-11.45Q31.05-14.85 32.5-17.55 33.95-20.25 36.5-21.8 39.05-23.35 42.35-23.35L42.35-23.35Q45.9-23.35 48.42-21.85 50.95-20.35 52.3-17.68 53.65-15 53.65-11.45L53.65-11.45Q53.65-8.05 52.22-5.35 50.8-2.65 48.27-1.1 45.75 0.45 42.35 0.45ZM42.75-1.95L42.75-1.95Q45.75-1.95 47.2-4.42 48.65-6.9 48.65-10.85L48.65-10.85Q48.65-13.95 47.72-16.23 46.8-18.5 45.25-19.73 43.7-20.95 41.85-20.95L41.85-20.95Q38.95-20.95 37.52-18.6 36.1-16.25 36.1-12.5L36.1-12.5Q36.1-9.15 36.92-6.78 37.75-4.4 39.25-3.18 40.75-1.95 42.75-1.95ZM65.7-11.35L65.7-7.35Q65.7-5.2 66.15-4.08 66.59-2.95 67.59-2.53 68.59-2.1 70.15-2L70.15-2Q70.3-1.6 70.34-1.07 70.4-0.55 70.4 0.15L70.4 0.15Q69.65 0.1 68.62 0.08 67.59 0.05 66.45 0.03 65.3 0 64.09 0L64.09 0Q62.35 0 60.42 0.03 58.5 0.05 57.5 0.15L57.5 0.15Q57.5-0.55 57.55-1.07 57.6-1.6 57.75-2L57.75-2Q59.1-2.1 59.85-2.48 60.6-2.85 60.9-3.78 61.2-4.7 61.2-6.35L61.2-6.35 61.2-11.35 65.7-11.35ZM64.84-15.35L65.7-14.65 65.7-10.7 61.2-10.7 61.2-16.25 65.7-21.15Q65.7-19.45 65.4-18.07 65.09-16.7 64.84-15.35L64.84-15.35ZM65.7-12.15L64.59-15.05Q65.15-16.45 65.45-17.35 65.75-18.25 66.09-18.85L66.09-18.85Q67.2-20.6 68.7-21.75 70.2-22.9 72.15-22.9L72.15-22.9Q74.05-22.9 75.59-21.7L75.59-21.7Q75.5-20.9 75.4-19.85 75.3-18.8 75.27-17.75 75.25-16.7 75.25-15.8L75.25-15.8Q74.8-15.65 74.02-15.5 73.25-15.35 72.4-15.35L72.4-15.35Q72.3-17.75 71.62-18.5 70.95-19.25 69.95-19.25L69.95-19.25Q69.09-19.25 68.09-18.28 67.09-17.3 66.4-15.7 65.7-14.1 65.7-12.15L65.7-12.15ZM65.7-21.15L61.2-10.7 61.2-16.25Q61.2-17.45 60.95-18.2 60.7-18.95 59.9-19.35 59.1-19.75 57.45-19.8L57.45-19.8Q57.45-20.35 57.55-20.8 57.65-21.25 57.9-21.65L57.9-21.65Q59.45-21.75 61.45-22.25 63.45-22.75 64.59-23.35L64.59-23.35Q65.05-23.2 65.37-22.73 65.7-22.25 65.7-21.15L65.7-21.15ZM86.99 0.45L86.99 0.45Q84.04 0.45 82.62-1.07 81.19-2.6 81.19-6L81.19-6 81.19-19.55Q80.44-19.8 79.64-19.98 78.84-20.15 77.59-20.2L77.59-20.2Q77.59-20.85 77.69-21.33 77.79-21.8 78.04-22.4L78.04-22.4 81.19-22.4 81.19-29Q82.19-29.25 83.17-29.8 84.14-30.35 84.89-31L84.89-31Q85.39-30.8 85.54-30.4 85.69-30 85.69-28.4L85.69-28.4 85.69-22.4 92.19-22.4Q92.19-21.9 92.09-21.33 91.99-20.75 91.74-20.2L91.74-20.2Q89.94-20.15 88.44-19.98 86.94-19.8 85.69-19.55L85.69-19.55 85.69-7.05Q85.69-5.4 86.04-4.33 86.39-3.25 87.04-2.75 87.69-2.25 88.59-2.25L88.59-2.25Q89.64-2.25 90.42-2.55 91.19-2.85 91.89-3.45L91.89-3.45Q92.54-2.7 92.64-1.8L92.64-1.8Q91.84-0.85 90.22-0.2 88.59 0.45 86.99 0.45ZM103.99-22.4L109.54-22.4Q109.54-21.9 109.44-21.28 109.34-20.65 109.04-20.15L109.04-20.15Q107.59-20.15 106.31-19.98 105.04-19.8 103.99-19.45L103.99-19.45 103.99-22.4ZM99.94-11.1L99.94-24.4Q99.94-28.15 101.47-30.68 102.99-33.2 105.39-34.45 107.79-35.7 110.39-35.7L110.39-35.7Q112.34-35.7 113.34-35.33 114.34-34.95 115.14-34.45L115.14-34.45Q115.04-32.9 114.99-31.43 114.94-29.95 114.94-28.6L114.94-28.6Q114.29-28.4 113.54-28.3 112.79-28.2 112.09-28.2L112.09-28.2Q112.09-30.25 111.19-31.6 110.29-32.95 108.19-32.95L108.19-32.95Q106.84-32.95 106.02-32.13 105.19-31.3 104.81-29.75 104.44-28.2 104.44-25.95L104.44-25.95 104.44-11.1 99.94-11.1ZM96.64-22.4L100.69-22.4 100.69-19.55Q99.44-19.9 98.14-20.03 96.84-20.15 95.94-20.15L95.94-20.15Q95.94-20.8 96.11-21.35 96.29-21.9 96.64-22.4L96.64-22.4ZM104.44-11.35L104.44-7.35Q104.44-5.2 104.89-4.08 105.34-2.95 106.34-2.53 107.34-2.1 108.89-2L108.89-2Q109.04-1.6 109.09-1.07 109.14-0.55 109.14 0.15L109.14 0.15Q108.39 0.1 107.37 0.08 106.34 0.05 105.19 0.03 104.04 0 102.84 0L102.84 0Q101.09 0 99.17 0.03 97.24 0.05 96.24 0.15L96.24 0.15Q96.24-0.55 96.29-1.07 96.34-1.6 96.49-2L96.49-2Q97.84-2.1 98.59-2.48 99.34-2.85 99.64-3.78 99.94-4.7 99.94-6.35L99.94-6.35 99.94-11.35 104.44-11.35ZM124.54 0.45L124.54 0.45Q121.14 0.45 118.59-1.03 116.04-2.5 114.64-5.18 113.24-7.85 113.24-11.45L113.24-11.45Q113.24-14.85 114.69-17.55 116.14-20.25 118.69-21.8 121.24-23.35 124.54-23.35L124.54-23.35Q128.09-23.35 130.61-21.85 133.14-20.35 134.49-17.68 135.84-15 135.84-11.45L135.84-11.45Q135.84-8.05 134.41-5.35 132.99-2.65 130.46-1.1 127.94 0.45 124.54 0.45ZM124.94-1.95L124.94-1.95Q127.94-1.95 129.39-4.42 130.84-6.9 130.84-10.85L130.84-10.85Q130.84-13.95 129.91-16.23 128.99-18.5 127.44-19.73 125.89-20.95 124.04-20.95L124.04-20.95Q121.14-20.95 119.71-18.6 118.29-16.25 118.29-12.5L118.29-12.5Q118.29-9.15 119.11-6.78 119.94-4.4 121.44-3.18 122.94-1.95 124.94-1.95ZM139.64 0.15L139.64 0.15Q139.64-0.35 139.69-0.93 139.74-1.5 139.89-2L139.89-2Q141.89-2 142.61-2.93 143.34-3.85 143.34-6.35L143.34-6.35 143.34-28.75Q143.34-29.95 143.11-30.73 142.89-31.5 142.09-31.9 141.28-32.3 139.59-32.3L139.59-32.3Q139.59-32.85 139.69-33.3 139.78-33.75 140.03-34.15L140.03-34.15Q140.78-34.15 142.16-34.4 143.53-34.65 144.84-35.05 146.14-35.45 146.74-35.85L146.74-35.85Q147.19-35.7 147.51-35.25 147.84-34.8 147.84-33.85L147.84-33.85 147.84-6.35Q147.84-3.85 148.51-2.93 149.19-2 150.78-2L150.78-2Q150.94-1.5 150.99-0.85 151.03-0.2 151.03 0.15L151.03 0.15Q150.19 0.1 149.24 0.08 148.28 0.05 147.31 0.03 146.34 0 145.39 0L145.39 0Q144.44 0 143.41 0.03 142.39 0.05 141.44 0.08 140.49 0.1 139.64 0.15ZM154.63 0.15L154.63 0.15Q154.63-0.35 154.68-0.93 154.73-1.5 154.88-2L154.88-2Q156.88-2 157.61-2.93 158.33-3.85 158.33-6.35L158.33-6.35 158.33-16.25Q158.33-17.45 158.11-18.23 157.88-19 157.08-19.4 156.28-19.8 154.58-19.8L154.58-19.8Q154.58-20.35 154.68-20.8 154.78-21.25 155.03-21.65L155.03-21.65Q155.78-21.65 157.16-21.9 158.53-22.15 159.83-22.55 161.13-22.95 161.73-23.35L161.73-23.35Q162.18-23.2 162.51-22.75 162.83-22.3 162.83-21.35L162.83-21.35 162.83-6.35Q162.83-3.85 163.51-2.93 164.18-2 165.78-2L165.78-2Q165.93-1.5 165.98-0.85 166.03-0.2 166.03 0.15L166.03 0.15Q165.18 0.1 164.23 0.08 163.28 0.05 162.31 0.03 161.33 0 160.38 0L160.38 0Q159.43 0 158.41 0.03 157.38 0.05 156.43 0.08 155.48 0.1 154.63 0.15ZM160.18-29L160.18-29Q158.93-29 158.08-29.85 157.23-30.7 157.23-31.9L157.23-31.9Q157.23-33.25 158.13-34.1 159.03-34.95 160.18-34.95L160.18-34.95Q161.53-34.95 162.36-34.1 163.18-33.25 163.18-31.9L163.18-31.9Q163.18-30.75 162.31-29.88 161.43-29 160.18-29ZM181.13 0.45L181.13 0.45Q177.73 0.45 175.18-1.03 172.63-2.5 171.23-5.18 169.83-7.85 169.83-11.45L169.83-11.45Q169.83-14.85 171.28-17.55 172.73-20.25 175.28-21.8 177.83-23.35 181.13-23.35L181.13-23.35Q184.68-23.35 187.21-21.85 189.73-20.35 191.08-17.68 192.43-15 192.43-11.45L192.43-11.45Q192.43-8.05 191.01-5.35 189.58-2.65 187.06-1.1 184.53 0.45 181.13 0.45ZM181.53-1.95L181.53-1.95Q184.53-1.95 185.98-4.42 187.43-6.9 187.43-10.85L187.43-10.85Q187.43-13.95 186.51-16.23 185.58-18.5 184.03-19.73 182.48-20.95 180.63-20.95L180.63-20.95Q177.73-20.95 176.31-18.6 174.88-16.25 174.88-12.5L174.88-12.5Q174.88-9.15 175.71-6.78 176.53-4.4 178.03-3.18 179.53-1.95 181.53-1.95Z" opacity="1" transform="matrix(1,0,0,1,0,0)" fill="#598cc9" class="slogan-text-1" data-fill-palette-color="secondary" id="text-1"></path></svg></g></svg></g></svg></g></svg></g></svg></g></svg></g></svg></g><defs></defs></svg><rect width="320" height="360" fill="none" stroke="none" visibility="hidden"></rect></g></svg></g></svg>